<?xml version="1.0" encoding="UTF-8" standalone="no"?>
<!DOCTYPE svg PUBLIC "-//W3C//DTD SVG 1.1//EN" "http://www.w3.org/Graphics/SVG/1.1/DTD/svg11.dtd">
<svg width="100%" height="100%" viewBox="0 0 1281 323" version="1.1" xmlns="http://www.w3.org/2000/svg" xmlns:xlink="http://www.w3.org/1999/xlink" xml:space="preserve" xmlns:serif="http://www.serif.com/" style="fill-rule:evenodd;clip-rule:evenodd;stroke-linejoin:round;stroke-miterlimit:1.41421;">
    <g id="Warstwa_1-2">
        <path d="M107.49,110.29C114.82,104.96 121.31,120.04 128.4,109.65C127.11,116.92 122.83,120.41 116.97,120.82C110.91,121.24 108.22,116.78 107.49,110.29Z" style="fill:white;"/>
        <path d="M206.6,142.34C196.6,74.99 206.6,59.68 206.6,59.68C152.19,68.86 103.51,33.68 103.51,33.68C103.51,33.68 54.83,68.87 0.42,59.68C0.42,59.68 10.42,74.99 0.42,142.34C0.42,142.34 0.21,143.81 0.08,146.52C-0.29,154.52 0.08,173.46 9.18,197.23C11.323,190.687 13.912,184.298 16.93,178.11C20.073,171.643 23.627,165.383 27.57,159.37C28.81,157.37 30.143,155.397 31.57,153.45L31.38,153.84C34,150.16 37,146.59 39.86,143C31.169,157.464 24.633,173.119 20.46,189.47C19.62,192.723 18.87,195.977 18.21,199.23C17.288,203.742 16.597,208.298 16.14,212.88C19.27,218.992 22.767,224.909 26.61,230.6C27.428,224.037 28.698,217.538 30.41,211.15C33.952,198.092 39.091,185.52 45.71,173.72C48.06,169.49 50.92,165.36 53.54,161.18C44.993,179.523 39.681,199.207 37.84,219.36C37.73,220.49 37.65,221.61 37.57,222.73C36.953,230.399 37.098,238.11 38,245.75C38.08,246.36 38.17,246.95 38.26,247.56L41.68,251.46C42.524,252.258 43.516,252.883 44.6,253.3C47.533,256.493 50.667,259.693 54,262.9C54,262.66 54,262.41 53.95,262.17C53.524,255.786 53.424,249.384 53.65,242.99C54.235,227.744 56.434,212.603 60.21,197.82C61.73,191.82 63.92,185.68 65.8,179.6C61.373,204.385 61.143,229.739 65.12,254.6C65.25,255.4 65.36,256.2 65.49,257C66.05,260.36 66.7,263.65 67.43,266.9C68.217,270.3 69.097,273.667 70.07,277C78.549,283.774 87.41,290.054 96.61,295.81C93.809,288.837 91.445,281.696 89.53,274.43L88.53,273.74L89.37,274C84.213,253.707 82.163,232.748 83.29,211.84C83.58,205.61 84.51,199.2 85.15,192.84C85.755,218.812 90.85,244.485 100.21,268.72C101.977,273.353 103.9,277.83 105.98,282.15C106.47,283.15 106.98,284.15 107.45,285.15C109.057,288.317 110.757,291.39 112.55,294.37C118.37,290.643 123.843,286.877 128.97,283.07C128.8,282.72 128.62,282.38 128.46,282.07C126.63,278.2 124.93,274.21 123.32,270.07C118.29,257.169 114.499,243.819 112,230.2C110.86,224.08 110.3,217.62 109.47,211.31C114.249,229.819 121.398,247.633 130.74,264.31C133.013,268.383 135.387,272.353 137.86,276.22C145.613,269.959 152.955,263.205 159.84,256C214.73,198.43 206.6,142.34 206.6,142.34ZM151.54,245.07C135.75,222.45 122.89,192.93 128.25,167.47C130.2,158.24 135.58,149.87 139.75,140.26L121.82,145.19C128.43,138.75 137.87,135.52 162.93,131.56C146.25,125.56 131.06,129.56 115.48,130.89C115.58,128.96 115.65,127.49 115.69,126.84C110.58,124.38 105.69,122.1 100.91,119.64C99.93,119.093 99.196,118.191 98.86,117.12C96.64,107.6 91.14,106.47 83.48,110.58C91.48,102.18 128,100.64 139.58,109.11C134.22,114.11 132.91,117.01 127.58,121.95L128.08,123.6C135,124.27 141.96,124.72 148.85,125.67C153.443,126.233 157.967,127.265 162.35,128.75C171.53,132.02 179.41,136.9 178.62,150.21C191.33,134.49 188.4,117.36 172.33,109.01C169.729,107.562 166.997,106.364 164.17,105.43C159.92,104.17 157.32,101.8 154.97,97.35C152.89,93.41 147.8,87.74 143.75,85.89C141.28,84.76 139.75,83.68 137.25,82.89C126.25,78.21 112.54,78.26 96.34,78.24C93.1,78.24 89.66,78.51 86.34,78.66L86,79.2C93.891,79.62 101.73,80.725 109.43,82.5C108.317,82.56 107.203,82.64 106.09,82.74C98.429,82.086 90.72,82.233 83.09,83.18C80.09,83.52 77.03,84.18 74,84.64L58.25,87.05C63.89,86.72 84.65,84.86 89.77,85.18C61.51,90.87 36.43,103.5 15.91,125.8C18.45,102.88 18.44,86.66 17.37,75.31L19,75.31C57,75.31 89.49,58.63 103.55,50.14C117.61,58.63 150.06,75.32 188.1,75.31L189.69,75.31C188.35,89.52 188.69,111.38 193.59,144.55C193.87,147 199.28,194.5 151.54,245.07Z" style="fill:white;fill-rule:nonzero;"/>
        <path d="M92.56,30.59L103.16,22.72L113.02,30.06L108.95,18.86L119.18,11.49L106.34,12.07L102.93,0L99.13,11.46L87.19,10.84L97.06,18.18L92.56,30.59Z" style="fill:white;fill-rule:nonzero;"/>
        <path d="M141.36,43.61L142.35,33.89L151.28,32.17L142.96,27.92L143.95,18.22L137.82,25.3L129.5,21.02L134.03,29.64L127.89,36.69L136.82,34.96L141.36,43.61Z" style="fill:white;fill-rule:nonzero;"/>
        <path d="M61.59,42.53L68.21,35.36L76.39,39.34L72.28,30.95L78.9,23.78L69.75,25.77L65.66,17.35L64.11,26.96L54.97,28.92L63.15,32.9L61.59,42.53Z" style="fill:white;fill-rule:nonzero;"/>
        <path d="M173.94,51.66L174.77,42.63L183.06,40.95L175.43,37.76L176.34,29.08L170.74,35.88L162.98,32.06L167.14,39.39L161.37,45.35L169.65,43.67L173.94,51.66Z" style="fill:white;fill-rule:nonzero;"/>
        <path d="M32.89,51.37L38.01,43.88L46.06,46.44L40.95,39.94L45.97,32.8L37.77,36.02L32.85,28.92L32.91,37.34L24.97,39.74L33.03,42.3L32.89,51.37Z" style="fill:white;fill-rule:nonzero;"/>
        <g transform="matrix(1,0,0,1,292.54,155.33)">
            <text x="0px" y="0px" style="font-family:'ArialMT', 'Arial', sans-serif;font-size:164.99px;fill:white;">AKADEMIA</text>
        </g>
        <g transform="matrix(0.98,0,0,1,296.86,289.85)">
            <text x="0px" y="0px" style="font-family:'ArialMT', 'Arial', sans-serif;font-size:125.65px;fill:white;">EXPER<tspan x="423.701px 500.453px " y="0px 0px ">TÓ</tspan>W 2.0</text>
        </g>
    </g>
</svg>
