<svg xmlns="http://www.w3.org/2000/svg" viewBox="0 0 1281 322.64"><defs><style>.cls-1,.cls-2,.cls-3,.cls-4{fill:#1b325e;}.cls-1{fill-rule:evenodd;}.cls-3{font-size:164.99px;}.cls-3,.cls-4{font-family:TrajanBold, Trajan;font-weight:700;}.cls-4{font-size:125.65px;}</style></defs><title>Zasób 4</title><g id="Warstwa_2" data-name="Warstwa 2"><g id="Warstwa_1-2" data-name="Warstwa 1"><path class="cls-1" d="M107.49,110.29c7.33-5.33,13.82,9.75,20.91-.64-1.29,7.27-5.57,10.76-11.43,11.17C110.91,121.24,108.22,116.78,107.49,110.29Z"/><path class="cls-2" d="M206.6,142.34c-10-67.35,0-82.66,0-82.66-54.41,9.18-103.09-26-103.09-26S54.83,68.87.42,59.68c0,0,10,15.31,0,82.66,0,0-.21,1.47-.34,4.18-.37,8,0,26.94,9.1,50.71a150.36,150.36,0,0,1,7.75-19.12,168.37,168.37,0,0,1,10.64-18.74q1.86-3,4-5.92l-.19.39C34,150.16,37,146.59,39.86,143a173.56,173.56,0,0,0-19.4,46.47q-1.26,4.88-2.25,9.76a135.24,135.24,0,0,0-2.07,13.65,170.74,170.74,0,0,0,10.47,17.72,143.92,143.92,0,0,1,3.8-19.45,164.55,164.55,0,0,1,15.3-37.43c2.35-4.23,5.21-8.36,7.83-12.54a175.58,175.58,0,0,0-15.7,58.18c-.11,1.13-.19,2.25-.27,3.37A116.59,116.59,0,0,0,38,245.75c.08.61.17,1.2.26,1.81l3.42,3.9a8.89,8.89,0,0,0,2.92,1.84Q49,258.09,54,262.9c0-.24,0-.49-.05-.73a188.4,188.4,0,0,1-.3-19.18,215.94,215.94,0,0,1,6.56-45.17c1.52-6,3.71-12.14,5.59-18.22a224.67,224.67,0,0,0-.68,75c.13.8.24,1.6.37,2.4.56,3.36,1.21,6.65,1.94,9.9Q68.61,272,70.07,277a283.08,283.08,0,0,0,26.54,18.81,181.34,181.34,0,0,1-7.08-21.38l-1-.69.84.26a207.13,207.13,0,0,1-6.08-62.16c.29-6.23,1.22-12.64,1.86-19a225.18,225.18,0,0,0,15.06,75.88q2.65,6.95,5.77,13.43c.49,1,1,2,1.47,3q2.41,4.75,5.1,9.22,8.73-5.59,16.42-11.3c-.17-.35-.35-.69-.51-1-1.83-3.87-3.53-7.86-5.14-12A218.1,218.1,0,0,1,112,230.2c-1.14-6.12-1.7-12.58-2.53-18.89a222,222,0,0,0,21.27,53q3.41,6.11,7.12,11.91A232,232,0,0,0,159.84,256C214.73,198.43,206.6,142.34,206.6,142.34ZM151.54,245.07c-15.79-22.62-28.65-52.14-23.29-77.6,1.95-9.23,7.33-17.6,11.5-27.21l-17.93,4.93c6.61-6.44,16.05-9.67,41.11-13.63-16.68-6-31.87-2-47.45-.67.1-1.93.17-3.4.21-4.05-5.11-2.46-10-4.74-14.78-7.2a4.39,4.39,0,0,1-2.05-2.52c-2.22-9.52-7.72-10.65-15.38-6.54,8-8.4,44.52-9.94,56.1-1.47-5.36,5-6.67,7.9-12,12.84l.5,1.65c6.92.67,13.88,1.12,20.77,2.07a67.73,67.73,0,0,1,13.5,3.08c9.18,3.27,17.06,8.15,16.27,21.46,12.71-15.72,9.78-32.85-6.29-41.2a47.23,47.23,0,0,0-8.16-3.58c-4.25-1.26-6.85-3.63-9.2-8.08-2.08-3.94-7.17-9.61-11.22-11.46-2.47-1.13-4-2.21-6.5-3-11-4.68-24.71-4.63-40.91-4.65-3.24,0-6.68.27-10,.42L86,79.2a136.63,136.63,0,0,1,23.43,3.3q-1.67.09-3.34.24a110.45,110.45,0,0,0-23,.44c-3,.34-6.06,1-9.09,1.46L58.25,87.05c5.64-.33,26.4-2.19,31.52-1.87-28.26,5.69-53.34,18.32-73.86,40.62,2.54-22.92,2.53-39.14,1.46-50.49H19c38,0,70.49-16.68,84.55-25.17,14.06,8.49,46.51,25.18,84.55,25.17h1.59c-1.34,14.21-1,36.07,3.9,69.24C193.87,147,199.28,194.5,151.54,245.07Z"/><polygon class="cls-2" points="92.56 30.59 103.16 22.72 113.02 30.06 108.95 18.86 119.18 11.49 106.34 12.07 102.93 0 99.13 11.46 87.19 10.84 97.06 18.18 92.56 30.59"/><polygon class="cls-2" points="141.36 43.61 142.35 33.89 151.28 32.17 142.96 27.92 143.95 18.22 137.82 25.3 129.5 21.02 134.03 29.64 127.89 36.69 136.82 34.96 141.36 43.61"/><polygon class="cls-2" points="61.59 42.53 68.21 35.36 76.39 39.34 72.28 30.95 78.9 23.78 69.75 25.77 65.66 17.35 64.11 26.96 54.97 28.92 63.15 32.9 61.59 42.53"/><polygon class="cls-2" points="173.94 51.66 174.77 42.63 183.06 40.95 175.43 37.76 176.34 29.08 170.74 35.88 162.98 32.06 167.14 39.39 161.37 45.35 169.65 43.67 173.94 51.66"/><polygon class="cls-2" points="32.89 51.37 38.01 43.88 46.06 46.44 40.95 39.94 45.97 32.8 37.77 36.02 32.85 28.92 32.91 37.34 24.97 39.74 33.03 42.3 32.89 51.37"/><text class="cls-3" transform="translate(292.54 155.33)">AKADEMIA</text><text class="cls-4" transform="translate(296.86 289.85) scale(0.98 1)">EXPERTÓW 2.0</text></g></g></svg>